<?xml version="1.0" encoding="UTF-8" standalone="no"?>
<!-- Created with Inkscape (http://www.inkscape.org/) -->

<svg
   xmlns:dc="http://purl.org/dc/elements/1.1/"
   xmlns:cc="http://creativecommons.org/ns#"
   xmlns:rdf="http://www.w3.org/1999/02/22-rdf-syntax-ns#"
   xmlns:svg="http://www.w3.org/2000/svg"
   xmlns="http://www.w3.org/2000/svg"
   xmlns:sodipodi="http://sodipodi.sourceforge.net/DTD/sodipodi-0.dtd"
   xmlns:inkscape="http://www.inkscape.org/namespaces/inkscape"
   width="7.8874598in"
   height="4.7294183in"
   viewBox="0 0 200.34148 120.12723"
   version="1.1"
   id="svg8"
   inkscape:version="0.92.3 (2405546, 2018-03-11)"
   sodipodi:docname="boss2.svg"
   inkscape:export-filename="/home/home/jhudson/shawnee/18/etgg2801/labs/14-mesh/boss2.svg.png"
   inkscape:export-xdpi="202.85001"
   inkscape:export-ydpi="202.85001">
  <defs
     id="defs2" />
  <sodipodi:namedview
     id="base"
     pagecolor="#ffffff"
     bordercolor="#666666"
     borderopacity="1.0"
     inkscape:pageopacity="0.0"
     inkscape:pageshadow="2"
     inkscape:zoom="0.67572789"
     inkscape:cx="418.48726"
     inkscape:cy="274.70268"
     inkscape:document-units="px"
     inkscape:current-layer="layer1"
     showgrid="true"
     units="in"
     inkscape:window-width="1366"
     inkscape:window-height="717"
     inkscape:window-x="0"
     inkscape:window-y="0"
     inkscape:window-maximized="1"
     inkscape:snap-global="false"
     fit-margin-top="0"
     fit-margin-left="0"
     fit-margin-right="0"
     fit-margin-bottom="0">
    <inkscape:grid
       type="xygrid"
       id="grid1420"
       originx="0.18702227"
       originy="-91.05098" />
  </sodipodi:namedview>
  <metadata
     id="metadata5">
    <rdf:RDF>
      <cc:Work
         rdf:about="">
        <dc:format>image/svg+xml</dc:format>
        <dc:type
           rdf:resource="http://purl.org/dc/dcmitype/StillImage" />
        <dc:title></dc:title>
      </cc:Work>
    </rdf:RDF>
  </metadata>
  <g
     inkscape:label="Layer 1"
     inkscape:groupmode="layer"
     id="layer1"
     transform="translate(0.18702228,-85.821789)">
    <path
       style="opacity:1;fill:#feffa3;fill-opacity:1;stroke:#000000;stroke-width:1.00000012;stroke-linecap:round;stroke-linejoin:round;stroke-miterlimit:4;stroke-dasharray:none;stroke-dashoffset:0;stroke-opacity:1;paint-order:normal"
       d="M 111.70703 235.1543 C 109.66178 252.42531 124.56451 271.73764 129.80273 277.94141 L 147.22852 267.21875 C 137.09822 260.48655 112.42133 243.31506 111.70703 235.1543 z "
       transform="matrix(0.26458333,0,0,0.26458333,-0.18702228,85.821789)"
       id="path960" />
    <path
       style="color:#000000;font-style:normal;font-variant:normal;font-weight:normal;font-stretch:normal;font-size:medium;line-height:normal;font-family:sans-serif;font-variant-ligatures:normal;font-variant-position:normal;font-variant-caps:normal;font-variant-numeric:normal;font-variant-alternates:normal;font-feature-settings:normal;text-indent:0;text-align:start;text-decoration:none;text-decoration-line:none;text-decoration-style:solid;text-decoration-color:#000000;letter-spacing:normal;word-spacing:normal;text-transform:none;writing-mode:lr-tb;direction:ltr;text-orientation:mixed;dominant-baseline:auto;baseline-shift:baseline;text-anchor:start;white-space:normal;shape-padding:0;clip-rule:nonzero;display:inline;overflow:visible;visibility:visible;opacity:1;isolation:auto;mix-blend-mode:normal;color-interpolation:sRGB;color-interpolation-filters:linearRGB;solid-color:#000000;solid-opacity:1;vector-effect:none;fill:#cb6565;fill-opacity:1;fill-rule:nonzero;stroke:#000000;stroke-width:1;stroke-linecap:round;stroke-linejoin:round;stroke-miterlimit:4;stroke-dasharray:none;stroke-dashoffset:0;stroke-opacity:1;paint-order:normal;color-rendering:auto;image-rendering:auto;shape-rendering:auto;text-rendering:auto;enable-background:accumulate"
       d="M 8.7070312 188.1543 C 8.3076997 192.94105 10.247055 198.32579 11.857422 202.44141 C 12.453501 205.35792 15.801926 206.80865 16.890625 208.77344 C 10.792099 208.23437 7.3630803 212.12054 0.5 221.01953 C 12.339236 213.1124 17.560397 215.90004 23.746094 218.60352 C 45.811143 227.01141 62.853714 244.64384 80.707031 253.1543 C 83.933361 254.87789 87.354067 255.91018 90.890625 256.35938 C 90.48206 253.61311 90.386764 250.85878 90.707031 248.1543 C 90.905018 250.41627 92.982623 253.38075 96.042969 256.61328 C 109.68363 256.27193 124.46036 248.31162 136.33398 237.98633 L 136.15039 238.14258 C 136.51243 237.85358 136.88464 237.58058 137.25781 237.30859 C 136.02424 233.20599 135.34184 228.99667 135.56445 224.88086 C 133.29703 226.13246 131.11006 227.5746 129.0332 229.23242 C 128.9706 229.28272 128.91004 229.33381 128.84961 229.38672 C 116.80582 239.85998 100.19304 250.6914 85.978516 243.0625 C 85.872009 243.005 85.762329 242.95104 85.652344 242.90039 C 68.568588 235.08138 53.678342 219.02617 33.707031 210.71484 C 33.347637 210.56571 26.994967 207.9009 24.634766 206.05469 C 19.138813 203.20912 13.38975 199.45161 11.34375 193.27148 C 10.901161 192.16354 9.3311147 188.87206 8.7070312 188.1543 z M 159.58594 218.66016 C 154.6128 218.73688 149.66562 219.47493 144.91602 220.92383 C 142.48279 223.67525 140.87961 226.18258 140.70703 228.1543 C 140.48447 226.2749 140.46978 224.36898 140.61719 222.45703 C 139.0653 223.09266 137.54055 223.80969 136.05078 224.60938 C 136.98418 227.19074 139.68975 230.41944 143.26172 233.8418 C 157.94252 227.25951 177.53187 230.54643 190.25586 240.74023 L 200.45312 234.46484 C 189.66256 224.14938 174.50534 218.42998 159.58594 218.66016 z "
       transform="matrix(0.26458333,0,0,0.26458333,-0.18702228,85.821789)"
       id="path885" />
    <path
       id="path841"
       style="opacity:1;fill:#ffffff;fill-opacity:1;stroke:#000000;stroke-width:0.26458335;stroke-linecap:butt;stroke-linejoin:round;stroke-miterlimit:4;stroke-dasharray:none;stroke-dashoffset:0;stroke-opacity:1;paint-order:normal"
       sodipodi:type="arc"
       sodipodi:cx="47.465145"
       sodipodi:cy="89.922615"
       sodipodi:rx="4.0567212"
       sodipodi:ry="3.4749136"
       sodipodi:start="2.1468291"
       sodipodi:end="3.9213178"
       d="M 45.255444,92.836783 A 4.0567212,3.4749136 0 0 1 43.43185,90.295516 4.0567212,3.4749136 0 0 1 44.580383,87.479459"
       sodipodi:open="true" />
    <ellipse
       style="opacity:1;fill:#d12929;fill-opacity:1;stroke:none;stroke-width:0.26458335;stroke-linecap:butt;stroke-linejoin:round;stroke-miterlimit:4;stroke-dasharray:none;stroke-dashoffset:0;stroke-opacity:1;paint-order:normal"
       id="path843"
       cx="44.05941"
       cy="90.006973"
       rx="0.54889488"
       ry="1.7197917" />
    <path
       style="opacity:1;fill:#feffa3;fill-opacity:1;stroke:#000000;stroke-width:1.00000012;stroke-linecap:round;stroke-linejoin:round;stroke-miterlimit:4;stroke-dasharray:none;stroke-dashoffset:0;stroke-opacity:1;paint-order:normal"
       d="M 89.650391 144.3457 C 85.271295 149.395 68.557435 170.00215 70.707031 188.1543 C 71.426309 179.93664 96.434749 162.58795 106.42578 155.95898 L 89.650391 144.3457 z "
       transform="matrix(0.26458333,0,0,0.26458333,-0.18702228,85.821789)"
       id="path855" />
    <path
       sodipodi:nodetypes="cccc"
       inkscape:connector-curvature="0"
       id="path857"
       d="m 30.427085,126.34375 c 0,0 -5.945189,6.38762 -5.291667,11.90625 0.237327,-2.71143 10.583333,-9.26042 10.583333,-9.26042 z"
       style="opacity:1;fill:#feffa3;fill-opacity:1;stroke:#000000;stroke-width:0.26458335;stroke-linecap:round;stroke-linejoin:round;stroke-miterlimit:4;stroke-dasharray:none;stroke-dashoffset:0;stroke-opacity:1;paint-order:normal" />
    <path
       style="opacity:1;fill:#feffa3;fill-opacity:1;stroke:#000000;stroke-width:1.00000012;stroke-linecap:round;stroke-linejoin:round;stroke-miterlimit:4;stroke-dasharray:none;stroke-dashoffset:0;stroke-opacity:1;paint-order:normal"
       d="M 131.4375 173.27539 C 125.05416 181.46032 113.92842 198.13493 115.70703 213.1543 C 116.33267 206.00645 135.37077 191.94543 146.9375 184.00586 L 131.4375 173.27539 z "
       transform="matrix(0.26458333,0,0,0.26458333,-0.18702228,85.821789)"
       id="path859" />
    <path
       style="opacity:1;fill:#feffa3;fill-opacity:1;stroke:#000000;stroke-width:1.00000012;stroke-linecap:round;stroke-linejoin:round;stroke-miterlimit:4;stroke-dasharray:none;stroke-dashoffset:0;stroke-opacity:1;paint-order:normal"
       d="M 155.28125 189.7832 C 148.80288 198.39887 139.03312 214.01904 140.70703 228.1543 C 141.30293 221.34627 158.61478 208.25897 170.26758 200.1582 L 155.28125 189.7832 z "
       transform="matrix(0.26458333,0,0,0.26458333,-0.18702228,85.821789)"
       id="path861" />
    <path
       style="opacity:1;fill:#feffa3;fill-opacity:1;stroke:#000000;stroke-width:1.00000012;stroke-linecap:round;stroke-linejoin:round;stroke-miterlimit:4;stroke-dasharray:none;stroke-dashoffset:0;stroke-opacity:1;paint-order:normal"
       d="M 65.707031 263.1543 C 63.640962 280.6011 78.8858 300.15315 83.972656 306.14453 L 101.46875 295.37695 C 91.508555 288.77073 66.427381 271.3842 65.707031 263.1543 z "
       transform="matrix(0.26458333,0,0,0.26458333,-0.18702228,85.821789)"
       id="path863" />
    <path
       style="opacity:1;fill:#feffa3;fill-opacity:1;stroke:#000000;stroke-width:1.00000012;stroke-linecap:round;stroke-linejoin:round;stroke-miterlimit:4;stroke-dasharray:none;stroke-dashoffset:0;stroke-opacity:1;paint-order:normal"
       d="M 90.707031 248.1543 C 88.667012 265.38115 103.48504 284.63489 108.75977 290.89062 L 126.16797 280.17773 C 115.99601 273.41445 91.419791 256.29749 90.707031 248.1543 z "
       transform="matrix(0.26458333,0,0,0.26458333,-0.18702228,85.821789)"
       id="path865" />
    <path
       style="opacity:1;fill:#feffa3;fill-opacity:1;stroke:#000000;stroke-width:1.00000012;stroke-linecap:round;stroke-linejoin:round;stroke-miterlimit:4;stroke-dasharray:none;stroke-dashoffset:0;stroke-opacity:1;paint-order:normal"
       d="M 135.70703 223.1543 C 133.84908 238.84364 146.09254 256.37627 152.2793 264.10938 L 169.07227 253.77539 C 157.89118 246.21319 136.37069 230.73654 135.70703 223.1543 z "
       transform="matrix(0.26458333,0,0,0.26458333,-0.18702228,85.821789)"
       id="path869" />
    <path
       style="opacity:1;fill:#3c6c3a;fill-opacity:1;stroke:#000000;stroke-width:1;stroke-linecap:butt;stroke-linejoin:round;stroke-miterlimit:4;stroke-dasharray:none;stroke-dashoffset:0;stroke-opacity:1;paint-order:normal"
       d="m 179.64258,258.34766 c -4.72918,-0.0573 -9.28404,1.52864 -12.62696,4.39648 L 179.39648,273.3457 170,286 c 7.73758,4.22058 17.96412,2.60478 23.4375,-3.70312 1.2952,-1.50036 2.25234,-3.19473 2.82227,-4.9961 0.33737,0.0519 0.67999,0.0605 1.01953,0.0254 10.43382,-1.00781 17.6248,-0.66362 21.89453,0.43555 4.26973,1.09917 5.21294,2.34244 5.63281,3.89844 0.41987,1.55599 -0.0508,4.59366 -1.88281,8.52539 -1.83197,3.93176 -4.81404,8.6099 -8.24414,13.54687 -6.8602,9.87395 -15.46474,20.72726 -20.31641,30.8711 -2.42584,5.07189 -4.02934,10.05852 -3.46875,15.04296 0.37577,3.34114 1.97686,6.50827 4.60742,9.04493 C 156.91873,365.78894 100.62882,385.23972 80,396 l 130,90 -130,80 c 56.54122,31.00971 179.46431,16.79131 231.21289,-17.4707 18.84705,-14.61399 44.38312,-13.25003 63.12305,-24.0293 29.65735,-11.61636 54.45244,-27.06326 76.74218,-38.78711 30.94544,-16.27653 54.48358,-25.24944 78.49805,-23.00977 l 0.0586,0.008 c 19.04258,1.75464 42.15328,7.85929 55.43945,15.70117 12.75794,7.53007 15.36968,10.33681 15.62695,20.41016 0.0658,0.95516 0.86336,-0.26291 -1.8164,2.98242 -2.84497,3.44534 -10.08531,9.67913 -20.12305,17.62109 -10.03775,7.94196 -22.93773,17.6142 -35.07031,33.13672 -12.13259,15.52248 -22.488,39.0748 -21.98438,64.40039 0.0872,4.31607 0.75269,8.60097 1.97852,12.74023 11.95759,40.40884 47.41002,64.67387 78.21093,73.91602 30.80096,9.24219 60.41495,8.82344 85.1504,5.88281 0.0664,-0.008 0.13282,-0.0155 0.19921,-0.0234 10.74237,-1.32212 17.52653,-2.43625 20.53711,-2.48633 26.95401,-0.0553 48.64829,-22.15907 48.19922,-49.10938 -0.44906,-26.9503 -22.8677,-48.31931 -49.80859,-47.47656 -14.23,0.2366 -24.41148,2.41955 -30.73047,3.19727 l 0.19922,-0.0312 c -14.9198,1.77369 -34.34273,1.01215 -45.98242,-2.48047 -3.39047,-1.01738 -4.36012,-1.62883 -6.14258,-2.35352 3.27039,-3.38714 7.3623,-7.36488 15.18554,-13.55469 9.73639,-7.70347 22.40882,-17.03105 34.66602,-31.875 12.2572,-14.84394 23.50306,-37.46972 24.01953,-62.70117 0.008,-0.43028 0.0108,-0.86066 0.008,-1.29101 -0.30349,-47.44211 -31.20961,-85.19454 -63.22656,-104.0918 -31.99634,-18.88505 -66.19356,-25.9849 -95.61719,-28.70117 -6.64255,-0.6195 -13.14429,-0.84933 -19.50195,-0.73828 -44.50363,0.77737 -82.04995,18.18051 -112.94336,34.42968 -33.82386,17.79056 -61.95103,46.4789 -86.4082,40.56055 C 288.62778,433.25625 258.44704,356.38885 220,356 c -6.84602,-0.28495 -10.25698,1.37285 -16.3125,-1.23047 -3.60438,-1.80219 -4.55821,-3.4768 -4.84375,-6.01562 -0.28554,-2.53886 0.64362,-6.31956 2.74023,-10.70313 4.19323,-8.76718 12.60346,-19.59541 19.66407,-29.75781 3.5303,-5.0812 6.73577,-10.00964 8.93359,-14.72656 2.19781,-4.71689 3.60089,-9.36569 2.35352,-13.98829 -1.24738,-4.6226 -5.50625,-8.04979 -11.36719,-9.55859 -2.93047,-0.7544 -6.3665,-1.18617 -10.43164,-1.29297 -1.01629,-0.0267 -2.07066,-0.0328 -3.16797,-0.0195 -3.29194,0.0399 -6.95914,0.25853 -11.05664,0.6543 -0.0804,0.009 -0.16051,0.0197 -0.24024,0.0332 -0.91477,-2.8759 -2.80848,-5.45297 -5.43945,-7.40234 -3.11407,-2.30444 -7.07579,-3.59482 -11.18945,-3.64453 z"
       transform="matrix(0.26458334,0,0,0.26458334,0,17.599992)"
       id="path835"
       inkscape:connector-curvature="0"
       sodipodi:nodetypes="cccccccscsscsccccccscccccscccscccsccccccsccccscccccssscssccccc" />
    <ellipse
       style="opacity:1;fill:none;fill-opacity:1;stroke:#000000;stroke-width:0.26458335;stroke-linecap:butt;stroke-linejoin:round;stroke-miterlimit:4;stroke-dasharray:none;stroke-dashoffset:0;stroke-opacity:1;paint-order:normal"
       id="path845"
       cx="43.934544"
       cy="89.885452"
       rx="0.13229167"
       ry="0.5291667" />
    <path
       style="opacity:1;fill:none;fill-opacity:1;stroke:#000000;stroke-width:0.26458335;stroke-linecap:butt;stroke-linejoin:round;stroke-miterlimit:4;stroke-dasharray:none;stroke-dashoffset:0;stroke-opacity:1;paint-order:normal"
       id="ellipse883"
       sodipodi:type="arc"
       sodipodi:cx="47.465145"
       sodipodi:cy="89.922615"
       sodipodi:rx="4.0567212"
       sodipodi:ry="3.4749136"
       sodipodi:start="2.1349743"
       sodipodi:end="3.9247501"
       d="m 45.29593,92.859016 a 4.0567212,3.4749136 0 0 1 -1.862211,-2.548955 4.0567212,3.4749136 0 0 1 1.156471,-2.839069 l 2.874955,2.451623 z" />
    <path
       sodipodi:nodetypes="cccccccscsscsccccccscccccscccscccsccccccsccccscccccssscssccccc"
       inkscape:connector-curvature="0"
       id="path907"
       transform="matrix(0.26458334,0,0,0.26458334,0,17.599992)"
       d="m 179.64258,258.34766 c -4.72918,-0.0573 -9.28404,1.52864 -12.62696,4.39648 L 179.39648,273.3457 170,286 c 7.73758,4.22058 17.96412,2.60478 23.4375,-3.70312 1.2952,-1.50036 2.25234,-3.19473 2.82227,-4.9961 0.33737,0.0519 0.67999,0.0605 1.01953,0.0254 10.43382,-1.00781 17.6248,-0.66362 21.89453,0.43555 4.26973,1.09917 5.21294,2.34244 5.63281,3.89844 0.41987,1.55599 -0.0508,4.59366 -1.88281,8.52539 -1.83197,3.93176 -4.81404,8.6099 -8.24414,13.54687 -6.8602,9.87395 -15.46474,20.72726 -20.31641,30.8711 -2.42584,5.07189 -4.02934,10.05852 -3.46875,15.04296 0.37577,3.34114 1.97686,6.50827 4.60742,9.04493 C 156.91873,365.78894 100.62882,385.23972 80,396 l 130,90 -130,80 c 56.54122,31.00971 179.46431,16.79131 231.21289,-17.4707 18.84705,-14.61399 44.38312,-13.25003 63.12305,-24.0293 29.65735,-11.61636 54.45244,-27.06326 76.74218,-38.78711 30.94544,-16.27653 54.48358,-25.24944 78.49805,-23.00977 l 0.0586,0.008 c 19.04258,1.75464 42.15328,7.85929 55.43945,15.70117 12.75794,7.53007 15.36968,10.33681 15.62695,20.41016 0.0658,0.95516 0.86336,-0.26291 -1.8164,2.98242 -2.84497,3.44534 -10.08531,9.67913 -20.12305,17.62109 -10.03775,7.94196 -22.93773,17.6142 -35.07031,33.13672 -12.13259,15.52248 -22.488,39.0748 -21.98438,64.40039 0.0872,4.31607 0.75269,8.60097 1.97852,12.74023 11.95759,40.40884 47.41002,64.67387 78.21093,73.91602 30.80096,9.24219 60.41495,8.82344 85.1504,5.88281 0.0664,-0.008 0.13282,-0.0155 0.19921,-0.0234 10.74237,-1.32212 17.52653,-2.43625 20.53711,-2.48633 26.95401,-0.0553 48.64829,-22.15907 48.19922,-49.10938 -0.44906,-26.9503 -22.8677,-48.31931 -49.80859,-47.47656 -14.23,0.2366 -24.41148,2.41955 -30.73047,3.19727 l 0.19922,-0.0312 c -14.9198,1.77369 -34.34273,1.01215 -45.98242,-2.48047 -3.39047,-1.01738 -4.36012,-1.62883 -6.14258,-2.35352 3.27039,-3.38714 7.3623,-7.36488 15.18554,-13.55469 9.73639,-7.70347 22.40882,-17.03105 34.66602,-31.875 12.2572,-14.84394 23.50306,-37.46972 24.01953,-62.70117 0.008,-0.43028 0.0108,-0.86066 0.008,-1.29101 -0.30349,-47.44211 -31.20961,-85.19454 -63.22656,-104.0918 -31.99634,-18.88505 -66.19356,-25.9849 -95.61719,-28.70117 -6.64255,-0.6195 -13.14429,-0.84933 -19.50195,-0.73828 -44.50363,0.77737 -82.04995,18.18051 -112.94336,34.42968 -33.82386,17.79056 -61.95103,46.4789 -86.4082,40.56055 C 288.62778,433.25625 258.44704,356.38885 220,356 c -6.84602,-0.28495 -10.25698,1.37285 -16.3125,-1.23047 -3.60438,-1.80219 -4.55821,-3.4768 -4.84375,-6.01562 -0.28554,-2.53886 0.64362,-6.31956 2.74023,-10.70313 4.19323,-8.76718 12.60346,-19.59541 19.66407,-29.75781 3.5303,-5.0812 6.73577,-10.00964 8.93359,-14.72656 2.19781,-4.71689 3.60089,-9.36569 2.35352,-13.98829 -1.24738,-4.6226 -5.50625,-8.04979 -11.36719,-9.55859 -2.93047,-0.7544 -6.3665,-1.18617 -10.43164,-1.29297 -1.01629,-0.0267 -2.07066,-0.0328 -3.16797,-0.0195 -3.29194,0.0399 -6.95914,0.25853 -11.05664,0.6543 -0.0804,0.009 -0.16051,0.0197 -0.24024,0.0332 -0.91477,-2.8759 -2.80848,-5.45297 -5.43945,-7.40234 -3.11407,-2.30444 -7.07579,-3.59482 -11.18945,-3.64453 z"
       style="opacity:1;fill:#3c6c3a;fill-opacity:1;stroke:#000000;stroke-width:1;stroke-linecap:butt;stroke-linejoin:round;stroke-miterlimit:4;stroke-dasharray:none;stroke-dashoffset:0;stroke-opacity:1;paint-order:normal" />
    <path
       style="opacity:1;fill:#feffa3;fill-opacity:1;stroke:#000000;stroke-width:1.00000012;stroke-linecap:round;stroke-linejoin:round;stroke-miterlimit:4;stroke-dasharray:none;stroke-dashoffset:0;stroke-opacity:1;paint-order:normal"
       d="M 110.85352 159.02539 C 104.39882 167.45595 93.982574 183.59221 95.707031 198.1543 C 96.31781 191.17622 114.47138 177.6162 126.10352 169.58203 L 110.85352 159.02539 z "
       transform="matrix(0.26458333,0,0,0.26458333,-0.18702228,85.821789)"
       id="path915" />
  </g>
</svg>
